<?xml version="1.0" encoding="UTF-8"?>
<!DOCTYPE svg PUBLIC "-//W3C//DTD SVG 1.1//EN" "http://www.w3.org/Graphics/SVG/1.1/DTD/svg11.dtd">
<svg xmlns="http://www.w3.org/2000/svg" version="1.1" width="500px" height="494px" style="shape-rendering:geometricPrecision; text-rendering:geometricPrecision; image-rendering:optimizeQuality; fill-rule:evenodd; clip-rule:evenodd" xmlns:xlink="http://www.w3.org/1999/xlink">
<g><path style="opacity:1" fill="#fe3e00" d="M 93.5,23.5 C 160.526,27.8994 227.526,32.7328 294.5,38C 315.168,40.8379 333.501,48.8379 349.5,62C 387.167,94.3333 424.833,126.667 462.5,159C 471.523,165.07 474.356,173.236 471,183.5C 469.108,187.058 466.275,189.558 462.5,191C 387.911,197.114 313.244,202.614 238.5,207.5C 218.117,206.891 201.284,198.891 188,183.5C 153.333,138.833 118.667,94.1667 84,49.5C 78.8006,37.5858 81.9673,28.9192 93.5,23.5 Z"/></g>
<g><path style="opacity:1" fill="#fe3e00" d="M 39.5,65.5 C 47.4865,64.9105 53.6532,67.9105 58,74.5C 87.0825,122.334 116.416,170.001 146,217.5C 155.41,233.746 158.077,251.08 154,269.5C 143,323.167 132,376.833 121,430.5C 117.586,442.625 109.752,447.125 97.5,444C 94.7047,442.207 92.2047,440.04 90,437.5C 68.3333,390.833 46.6667,344.167 25,297.5C 15.4968,276.812 12.1635,255.146 15,232.5C 18.8471,180.821 22.8471,129.155 27,77.5C 29.1112,71.2195 33.2778,67.2195 39.5,65.5 Z"/></g>
<g><path style="opacity:1" fill="#fe3e00" d="M 457.5,228.5 C 471.036,225.915 479.036,231.248 481.5,244.5C 481.406,246.923 480.906,249.256 480,251.5C 457.333,291.5 434.667,331.5 412,371.5C 398.083,394.379 378.583,410.545 353.5,420C 294.5,437 235.5,454 176.5,471C 156.464,474.298 148.964,466.132 154,446.5C 174.528,397.915 194.862,349.248 215,300.5C 224.366,279.8 240.199,267.3 262.5,263C 327.713,251.91 392.713,240.41 457.5,228.5 Z"/></g>
</svg>
